PathFileType	4	(X/Y/Z)	C:/Users/beibeiliu/ov580/test_trc/User2\sequence.34_training_dense_left.trc
DataRate	CameraRate	NumFrames	NumMarkers	Units	OrigDataRate	OrigDataStartFrame	OrigNumFrames
120	120	7	19	mm	120	73	144
Frame#	Time	ThumbCMC			ThumbMCP			ThumbIP			ThumbTip			IndexMCP			IndexPIP			IndexTip			MiddleMCP			MiddlePIP			MiddleTip			RingMCP			RingPIP			RingTip			PinkyMCP			PinkyPIP			PinkyTip			BackHand1			BackHand2			BackHand3	
		X0	Y0	Z0	X1	Y1	Z1	X2	Y2	Z2	X3	Y3	Z3	X4	Y4	Z4	X5	Y5	Z5	X6	Y6	Z6	X7	Y7	Z7	X8	Y8	Z8	X9	Y9	Z9	X10	Y10	Z10	X11	Y11	Z11	X12	Y12	Z12	X13	Y13	Z13	X14	Y14	Z14	X15	Y15	Z15	X16	Y16	Z16	X17	Y17	Z17	X18	Y18	Z18	
72	0.6	-175.189	23.1803	-37.8447	-175.128	37.6454	-64.8398	-178.211	51.2244	-97.948	-175.26	55.0437	-122.961	-168.781	4.8654	-125.199	-137.991	8.6479	-130.254	-134.402	15.1377	-94.8832	-157.053	-14.8241	-128.734	-123.042	-8.05849	-120.284	-131.187	-3.29043	-82.7197	-147.08	-33.0182	-123.004	-118.933	-20.6598	-115.361	-133.017	-15.349	-80.1558	-145.986	-49.2226	-109.322	-115.623	-35.6934	-107.307	-124.207	-28.3476	-74.0896	-186.3	-45.6278	-67.8137	-190.232	-43.0027	-31.937	-195.206	-9.57821	-50.9468	
73	0.608333	-175.798	21.2311	-38.5614	-178.225	32.6672	-69.0803	-180.172	42.5548	-104.986	-176.45	48.7309	-127.556	-172.931	7.52916	-124.551	-140.251	13.2688	-131.204	-139.822	13.2861	-93.0905	-161.62	-11.5008	-127.989	-127.34	-7.21008	-124.683	-135.536	-3.13776	-81.9682	-152.069	-30.8144	-123.215	-122.135	-19.1203	-115.044	-135.621	-17.4305	-80.7857	-145.329	-48.5096	-113.624	-116.204	-35.7923	-106.582	-131.348	-26.8977	-76.8169	-187.737	-41.0398	-70.8909	-189.483	-46.4907	-37.4681	-196.275	-9.49749	-53.5967	
74	0.616667	-175.878	19.0397	-40.8028	-177.713	36.8647	-70.2105	-176.674	39.7411	-107.618	-172.104	41.8372	-131.266	-173.359	6.48676	-125.003	-142.316	10.1399	-131.484	-140.436	16.9639	-95.2592	-161.508	-11.4709	-130.326	-128.331	-6.56588	-123.763	-134.044	-0.268701	-84.9327	-154.522	-29.7212	-123.038	-121.269	-21.2693	-115.474	-132.692	-17.6304	-84.7349	-146.731	-50.8116	-112.755	-120.522	-35.0077	-109.552	-131.018	-27.8989	-78.5633	-185.911	-44.9902	-67.5743	-192.397	-42.1833	-34.6837	-197.424	-8.15024	-52.2763	
75	0.625	-175.133	23.2546	-41.3698	-171.536	36.6779	-70.826	-168.796	42.2312	-105.007	-160.964	38.2474	-130.82	-173.114	4.64466	-124.738	-140.62	9.63971	-129.312	-139.031	18.5156	-95.5421	-162.796	-10.8072	-128.984	-127.454	-6.82769	-124.173	-136.321	-1.90159	-82.7193	-151.206	-32.0557	-123.774	-123.163	-19.213	-118.034	-135.929	-19.043	-80.5894	-148.483	-48.3656	-110.338	-118.192	-36.3849	-108.43	-130.809	-27.0717	-77.7144	-187.65	-39.57	-72.1385	-191.23	-41.4416	-32.8641	-197.378	-9.82232	-49.4325	
76	0.633333	-172.711	24.7425	-42.8871	-165.331	40.1804	-69.1324	-158.425	39.7208	-104.132	-150.443	38.7261	-130.282	-173.047	11.7025	-122.892	-139.109	15.3511	-130.878	-135.799	16.1008	-95.4319	-159.559	-9.8797	-129.672	-124.787	-6.66259	-123.429	-130.577	-0.25014	-84.4754	-151.751	-27.8486	-123.151	-119.417	-21.8582	-115.029	-131.114	-19.1299	-82.5219	-145.346	-49.3473	-112.3	-116.769	-35.4509	-107.676	-129.629	-27.8878	-73.498	-185.539	-40.2223	-67.3028	-190.351	-45.3981	-37.1759	-196.587	-8.98529	-53.4575	
77	0.641667	-168.167	21.8237	-39.6642	-158.064	38.0605	-68.204	-147.468	45.1096	-102.147	-138.633	39.2105	-125.781	-168.738	10.0327	-122.075	-135.512	14.9499	-129.226	-133.03	16.841	-91.7603	-158.498	-7.36711	-127.89	-123.996	-3.02914	-124.574	-127.959	-2.29196	-83.8644	-146.937	-28.1177	-122.851	-117.418	-21.3446	-113.176	-130.789	-17.752	-79.4813	-143.446	-45.8627	-112.687	-114.623	-32.0665	-105.324	-126.491	-26.2034	-77.725	-186.242	-41.1549	-69.6774	-188.092	-43.5433	-34.9746	-194.602	-8.56378	-52.7373	
78	0.65	-164.943	27.1506	-38.3712	-151.106	39.1225	-68.9914	-137.953	44.1843	-99.2839	-128.447	35.2588	-122.914	-164.256	13.0297	-122.578	-134.274	17.9987	-129.974	-128.844	18.9768	-94.2583	-156.551	-10.0732	-125.151	-118.701	-1.57176	-120.436	-123.986	2.44129	-83.1044	-147.359	-26.871	-120.908	-114.359	-20.7505	-114.352	-124.122	-15.5152	-81.6189	-143.147	-45.5772	-108.113	-112.135	-30.2875	-103.895	-122.826	-25.3279	-74.9461	-182.015	-36.6019	-66.3949	-186.103	-40.6384	-36.099	-190.919	-3.52558	-50.4153	
